<svg width="4" height="16" viewBox="0 0 4 16" fill="none" xmlns="http://www.w3.org/2000/svg">
<path d="M2.00003 4C3.10003 4 4.00003 3.1 4.00003 2C4.00003 0.9 3.10003 0 2.00003 0C0.90003 0 3.05176e-05 0.9 3.05176e-05 2C3.05176e-05 3.1 0.90003 4 2.00003 4ZM2.00003 6C0.90003 6 3.05176e-05 6.9 3.05176e-05 8C3.05176e-05 9.1 0.90003 10 2.00003 10C3.10003 10 4.00003 9.1 4.00003 8C4.00003 6.9 3.10003 6 2.00003 6ZM2.00003 12C0.90003 12 3.05176e-05 12.9 3.05176e-05 14C3.05176e-05 15.1 0.90003 16 2.00003 16C3.10003 16 4.00003 15.1 4.00003 14C4.00003 12.9 3.10003 12 2.00003 12Z" fill="#6E7680"/>
</svg>
