<svg width="17" height="20" viewBox="0 0 17 20" fill="none" xmlns="http://www.w3.org/2000/svg">
<mask id="path-1-outside-1" maskUnits="userSpaceOnUse" x="-0.013855" y="0" width="17" height="20" fill="black">
<rect fill="white" x="-0.013855" width="17" height="20"/>
<path d="M15.6751 15.0872C15.1546 14.8766 14.932 14.5969 14.9535 14.1796C14.9757 13.6926 14.6961 13.336 14.5634 13.195C14.6436 12.8922 14.8779 11.8447 14.5636 10.9348C14.2259 9.96087 13.1946 8.47348 12.1306 7.01138C11.695 6.41094 11.6744 5.75821 11.6505 5.00243C11.6277 4.28158 11.602 3.4645 11.1953 2.55616C10.7531 1.56713 9.86585 1 8.76089 1C8.10355 1 7.42881 1.20307 6.90959 1.55709C5.84633 2.28243 5.98688 3.86385 6.07989 4.91022C6.09265 5.05353 6.10461 5.18888 6.11161 5.30443C6.17353 6.32931 6.11719 6.86951 6.04352 7.03369C5.99586 7.14098 5.76123 7.4463 5.5129 7.76962C5.25608 8.104 4.96491 8.48293 4.72625 8.83606C4.44149 9.26102 4.21161 9.91053 3.98932 10.5386C3.82666 10.9982 3.67301 11.4323 3.52346 11.6919C3.23998 12.191 3.31053 12.6564 3.36939 12.8715C3.26206 12.9451 3.10703 13.0903 2.97616 13.3638C2.81797 13.6974 2.49701 13.8766 1.82962 14.0035C1.52292 14.0655 1.31144 14.193 1.20085 14.3824C1.03993 14.658 1.1276 15.0043 1.20755 15.241C1.32569 15.5888 1.25206 15.809 1.11821 16.2089C1.08735 16.3011 1.05237 16.4056 1.01694 16.5208C0.961127 16.7027 0.981269 16.868 1.07664 17.0122C1.32867 17.3931 2.06419 17.5274 2.82133 17.6158C3.2734 17.6688 3.76818 17.8475 4.24673 18.0204C4.71561 18.1898 5.20047 18.365 5.64117 18.4181C5.70815 18.4264 5.7745 18.4306 5.83846 18.4306C6.50388 18.4306 6.80452 17.9942 6.89985 17.8149C7.13885 17.7667 7.96322 17.6123 8.81285 17.5915C9.66114 17.5676 10.4819 17.7332 10.7144 17.7846C10.7875 17.9229 10.9802 18.2388 11.2873 18.4016C11.4562 18.4928 11.6911 18.5451 11.9317 18.5451C12.1887 18.5451 12.6777 18.485 13.0647 18.0826C13.4506 17.6784 14.415 17.1622 15.1191 16.7853C15.2763 16.7013 15.4233 16.6225 15.5522 16.5516C15.9477 16.3348 16.1636 16.0252 16.1443 15.7019C16.1282 15.4334 15.9485 15.1979 15.6751 15.0872ZM9.27109 3.53564C9.65455 3.53564 9.96653 3.92818 9.96653 4.41066C9.96653 4.61144 9.91047 4.803 9.81357 4.95525C9.8394 4.8739 9.85337 4.78583 9.85337 4.69447C9.85337 4.291 9.59441 3.97495 9.26378 3.97495C8.94067 3.97495 8.67779 4.29772 8.67779 4.69447C8.67779 4.72158 8.67914 4.74861 8.68167 4.77565C8.66455 4.76921 8.64787 4.76283 8.63158 4.75673C8.59438 4.64536 8.57559 4.52926 8.57559 4.41066C8.57562 3.92821 8.88756 3.53564 9.27109 3.53564ZM8.09183 5.28908C8.23792 5.31458 8.59819 5.45672 8.86135 5.56055C8.98297 5.60853 9.08805 5.64999 9.16192 5.67617C9.39472 5.75526 9.51612 5.85645 9.53082 5.89425C9.52531 5.91868 9.51353 5.92944 9.38352 5.9963C9.31786 6.03005 9.23618 6.07207 9.13391 6.13368L9.06558 6.17459C8.79101 6.33918 8.1481 6.72452 7.97358 6.74707C7.85502 6.76283 7.7817 6.71733 7.61685 6.60664C7.57965 6.58163 7.5401 6.55503 7.49791 6.52831C7.2007 6.33548 7.00951 6.12326 6.98794 6.04027C7.08484 5.96625 7.32502 5.78093 7.44798 5.67117C7.69759 5.44175 7.94876 5.28757 8.07308 5.28757C8.07967 5.28747 8.08563 5.28792 8.09183 5.28908ZM7.11226 3.69769C7.39453 3.69769 7.63294 4.07361 7.63294 4.51864C7.63294 4.57477 7.62885 4.63059 7.62032 4.69019C7.60302 4.69748 7.58603 4.70544 7.56932 4.71376C7.56762 4.67665 7.56374 4.63916 7.55774 4.60147C7.49735 4.25776 7.26674 4.00826 7.00958 4.00826C6.99054 4.00826 6.97141 4.0097 6.9504 4.01285C6.79741 4.03804 6.67739 4.1516 6.61163 4.31273C6.66942 3.95932 6.87198 3.69769 7.11226 3.69769ZM6.25243 17.0759C6.19166 17.3583 5.86821 17.588 5.79191 17.6388C5.76421 17.6449 5.72992 17.6481 5.6896 17.6481C5.24696 17.6481 4.37074 17.2841 3.89998 17.0886L3.83033 17.0596C3.56745 16.9507 3.13833 16.8821 2.72332 16.8157C2.39311 16.7628 1.94094 16.6905 1.86596 16.6251C1.80518 16.5577 1.87566 16.3387 1.93782 16.1455C1.98258 16.0066 2.02879 15.8631 2.0541 15.7128C2.09001 15.4732 2.04782 15.2779 2.01395 15.1211C1.98521 14.9881 1.96251 14.8831 1.98688 14.7814C2.00456 14.7061 2.38091 14.6254 2.54166 14.5908C2.76763 14.5423 3.00136 14.4922 3.15417 14.4005C3.36083 14.2767 3.47274 14.0485 3.57144 13.8472C3.64289 13.7016 3.71669 13.551 3.80451 13.5016C3.80946 13.4987 3.81702 13.4954 3.83144 13.4954C3.99598 13.4954 4.3412 13.8372 4.54012 14.1433C4.59056 14.2204 4.68403 14.375 4.79216 14.554C5.11557 15.0889 5.55838 15.8214 5.78965 16.0669C5.99804 16.2876 6.33539 16.712 6.25243 17.0759ZM11.0545 13.3376C10.9801 13.6886 10.9722 14.8113 10.9714 15.0636C10.8197 15.254 10.0528 16.151 8.95163 16.3122C8.5031 16.3766 8.08428 16.4093 7.70681 16.4093C7.38416 16.4093 7.17827 16.3847 7.09278 16.3719L6.53945 15.7461C6.75758 15.6396 6.97571 15.4149 6.91826 15.0095C6.86903 14.6666 6.42282 14.3266 5.9061 13.9328C5.48361 13.6109 5.0047 13.246 4.87276 12.9369C4.6001 12.2995 4.81504 11.1785 5.18976 10.6013C5.37496 10.3122 5.52621 9.87393 5.67251 9.45014C5.83046 8.99246 5.99381 8.51923 6.17651 8.31211C6.46581 7.98869 6.73317 7.35943 6.78053 6.86351C7.05142 7.11908 7.47166 7.44353 7.85991 7.44353C7.91967 7.44353 7.97771 7.43582 8.03314 7.42033C8.29877 7.34449 8.68944 7.12138 9.06725 6.90566C9.39298 6.71962 9.79465 6.4902 9.9458 6.46933C10.2049 6.83716 11.7108 10.1311 11.8647 11.1889C11.9864 12.0259 11.8578 12.7178 11.7931 12.9888C11.7411 12.9818 11.6791 12.9761 11.6139 12.9761C11.1944 12.9762 11.0834 13.2025 11.0545 13.3376ZM15.2634 15.7907C15.1756 15.87 14.8665 16.026 14.5676 16.1769C14.0373 16.4445 13.4363 16.7478 13.1664 17.0284C12.7864 17.4238 12.3566 17.6893 12.097 17.6893C12.0658 17.6893 12.0373 17.6854 12.012 17.6774C11.7302 17.5906 11.4982 17.1886 11.6229 16.6152C11.7542 16.0295 11.9055 15.2329 11.881 14.7631C11.8754 14.6565 11.8658 14.5403 11.8566 14.428C11.8393 14.218 11.8136 13.906 11.8401 13.8134C11.8453 13.8109 11.8512 13.8089 11.8576 13.8071C11.8587 14.0756 11.9177 14.6113 12.3511 14.798C12.4802 14.8537 12.6278 14.8819 12.7897 14.8819C13.2238 14.8819 13.7054 14.6715 13.9027 14.4764C14.0189 14.3617 14.1166 14.2211 14.185 14.1099C14.1999 14.1532 14.2092 14.2098 14.2043 14.2827C14.1785 14.6788 14.3733 15.2042 14.7438 15.3978L14.7978 15.4259C14.9298 15.4943 15.2804 15.6763 15.286 15.7626C15.286 15.7626 15.2829 15.7727 15.2634 15.7907Z"/>
</mask>
<path d="M15.6751 15.0872C15.1546 14.8766 14.932 14.5969 14.9535 14.1796C14.9757 13.6926 14.6961 13.336 14.5634 13.195C14.6436 12.8922 14.8779 11.8447 14.5636 10.9348C14.2259 9.96087 13.1946 8.47348 12.1306 7.01138C11.695 6.41094 11.6744 5.75821 11.6505 5.00243C11.6277 4.28158 11.602 3.4645 11.1953 2.55616C10.7531 1.56713 9.86585 1 8.76089 1C8.10355 1 7.42881 1.20307 6.90959 1.55709C5.84633 2.28243 5.98688 3.86385 6.07989 4.91022C6.09265 5.05353 6.10461 5.18888 6.11161 5.30443C6.17353 6.32931 6.11719 6.86951 6.04352 7.03369C5.99586 7.14098 5.76123 7.4463 5.5129 7.76962C5.25608 8.104 4.96491 8.48293 4.72625 8.83606C4.44149 9.26102 4.21161 9.91053 3.98932 10.5386C3.82666 10.9982 3.67301 11.4323 3.52346 11.6919C3.23998 12.191 3.31053 12.6564 3.36939 12.8715C3.26206 12.9451 3.10703 13.0903 2.97616 13.3638C2.81797 13.6974 2.49701 13.8766 1.82962 14.0035C1.52292 14.0655 1.31144 14.193 1.20085 14.3824C1.03993 14.658 1.1276 15.0043 1.20755 15.241C1.32569 15.5888 1.25206 15.809 1.11821 16.2089C1.08735 16.3011 1.05237 16.4056 1.01694 16.5208C0.961127 16.7027 0.981269 16.868 1.07664 17.0122C1.32867 17.3931 2.06419 17.5274 2.82133 17.6158C3.2734 17.6688 3.76818 17.8475 4.24673 18.0204C4.71561 18.1898 5.20047 18.365 5.64117 18.4181C5.70815 18.4264 5.7745 18.4306 5.83846 18.4306C6.50388 18.4306 6.80452 17.9942 6.89985 17.8149C7.13885 17.7667 7.96322 17.6123 8.81285 17.5915C9.66114 17.5676 10.4819 17.7332 10.7144 17.7846C10.7875 17.9229 10.9802 18.2388 11.2873 18.4016C11.4562 18.4928 11.6911 18.5451 11.9317 18.5451C12.1887 18.5451 12.6777 18.485 13.0647 18.0826C13.4506 17.6784 14.415 17.1622 15.1191 16.7853C15.2763 16.7013 15.4233 16.6225 15.5522 16.5516C15.9477 16.3348 16.1636 16.0252 16.1443 15.7019C16.1282 15.4334 15.9485 15.1979 15.6751 15.0872ZM9.27109 3.53564C9.65455 3.53564 9.96653 3.92818 9.96653 4.41066C9.96653 4.61144 9.91047 4.803 9.81357 4.95525C9.8394 4.8739 9.85337 4.78583 9.85337 4.69447C9.85337 4.291 9.59441 3.97495 9.26378 3.97495C8.94067 3.97495 8.67779 4.29772 8.67779 4.69447C8.67779 4.72158 8.67914 4.74861 8.68167 4.77565C8.66455 4.76921 8.64787 4.76283 8.63158 4.75673C8.59438 4.64536 8.57559 4.52926 8.57559 4.41066C8.57562 3.92821 8.88756 3.53564 9.27109 3.53564ZM8.09183 5.28908C8.23792 5.31458 8.59819 5.45672 8.86135 5.56055C8.98297 5.60853 9.08805 5.64999 9.16192 5.67617C9.39472 5.75526 9.51612 5.85645 9.53082 5.89425C9.52531 5.91868 9.51353 5.92944 9.38352 5.9963C9.31786 6.03005 9.23618 6.07207 9.13391 6.13368L9.06558 6.17459C8.79101 6.33918 8.1481 6.72452 7.97358 6.74707C7.85502 6.76283 7.7817 6.71733 7.61685 6.60664C7.57965 6.58163 7.5401 6.55503 7.49791 6.52831C7.2007 6.33548 7.00951 6.12326 6.98794 6.04027C7.08484 5.96625 7.32502 5.78093 7.44798 5.67117C7.69759 5.44175 7.94876 5.28757 8.07308 5.28757C8.07967 5.28747 8.08563 5.28792 8.09183 5.28908ZM7.11226 3.69769C7.39453 3.69769 7.63294 4.07361 7.63294 4.51864C7.63294 4.57477 7.62885 4.63059 7.62032 4.69019C7.60302 4.69748 7.58603 4.70544 7.56932 4.71376C7.56762 4.67665 7.56374 4.63916 7.55774 4.60147C7.49735 4.25776 7.26674 4.00826 7.00958 4.00826C6.99054 4.00826 6.97141 4.0097 6.9504 4.01285C6.79741 4.03804 6.67739 4.1516 6.61163 4.31273C6.66942 3.95932 6.87198 3.69769 7.11226 3.69769ZM6.25243 17.0759C6.19166 17.3583 5.86821 17.588 5.79191 17.6388C5.76421 17.6449 5.72992 17.6481 5.6896 17.6481C5.24696 17.6481 4.37074 17.2841 3.89998 17.0886L3.83033 17.0596C3.56745 16.9507 3.13833 16.8821 2.72332 16.8157C2.39311 16.7628 1.94094 16.6905 1.86596 16.6251C1.80518 16.5577 1.87566 16.3387 1.93782 16.1455C1.98258 16.0066 2.02879 15.8631 2.0541 15.7128C2.09001 15.4732 2.04782 15.2779 2.01395 15.1211C1.98521 14.9881 1.96251 14.8831 1.98688 14.7814C2.00456 14.7061 2.38091 14.6254 2.54166 14.5908C2.76763 14.5423 3.00136 14.4922 3.15417 14.4005C3.36083 14.2767 3.47274 14.0485 3.57144 13.8472C3.64289 13.7016 3.71669 13.551 3.80451 13.5016C3.80946 13.4987 3.81702 13.4954 3.83144 13.4954C3.99598 13.4954 4.3412 13.8372 4.54012 14.1433C4.59056 14.2204 4.68403 14.375 4.79216 14.554C5.11557 15.0889 5.55838 15.8214 5.78965 16.0669C5.99804 16.2876 6.33539 16.712 6.25243 17.0759ZM11.0545 13.3376C10.9801 13.6886 10.9722 14.8113 10.9714 15.0636C10.8197 15.254 10.0528 16.151 8.95163 16.3122C8.5031 16.3766 8.08428 16.4093 7.70681 16.4093C7.38416 16.4093 7.17827 16.3847 7.09278 16.3719L6.53945 15.7461C6.75758 15.6396 6.97571 15.4149 6.91826 15.0095C6.86903 14.6666 6.42282 14.3266 5.9061 13.9328C5.48361 13.6109 5.0047 13.246 4.87276 12.9369C4.6001 12.2995 4.81504 11.1785 5.18976 10.6013C5.37496 10.3122 5.52621 9.87393 5.67251 9.45014C5.83046 8.99246 5.99381 8.51923 6.17651 8.31211C6.46581 7.98869 6.73317 7.35943 6.78053 6.86351C7.05142 7.11908 7.47166 7.44353 7.85991 7.44353C7.91967 7.44353 7.97771 7.43582 8.03314 7.42033C8.29877 7.34449 8.68944 7.12138 9.06725 6.90566C9.39298 6.71962 9.79465 6.4902 9.9458 6.46933C10.2049 6.83716 11.7108 10.1311 11.8647 11.1889C11.9864 12.0259 11.8578 12.7178 11.7931 12.9888C11.7411 12.9818 11.6791 12.9761 11.6139 12.9761C11.1944 12.9762 11.0834 13.2025 11.0545 13.3376ZM15.2634 15.7907C15.1756 15.87 14.8665 16.026 14.5676 16.1769C14.0373 16.4445 13.4363 16.7478 13.1664 17.0284C12.7864 17.4238 12.3566 17.6893 12.097 17.6893C12.0658 17.6893 12.0373 17.6854 12.012 17.6774C11.7302 17.5906 11.4982 17.1886 11.6229 16.6152C11.7542 16.0295 11.9055 15.2329 11.881 14.7631C11.8754 14.6565 11.8658 14.5403 11.8566 14.428C11.8393 14.218 11.8136 13.906 11.8401 13.8134C11.8453 13.8109 11.8512 13.8089 11.8576 13.8071C11.8587 14.0756 11.9177 14.6113 12.3511 14.798C12.4802 14.8537 12.6278 14.8819 12.7897 14.8819C13.2238 14.8819 13.7054 14.6715 13.9027 14.4764C14.0189 14.3617 14.1166 14.2211 14.185 14.1099C14.1999 14.1532 14.2092 14.2098 14.2043 14.2827C14.1785 14.6788 14.3733 15.2042 14.7438 15.3978L14.7978 15.4259C14.9298 15.4943 15.2804 15.6763 15.286 15.7626C15.286 15.7626 15.2829 15.7727 15.2634 15.7907Z" fill="black"/>
<path d="M15.6751 15.0872C15.1546 14.8766 14.932 14.5969 14.9535 14.1796C14.9757 13.6926 14.6961 13.336 14.5634 13.195C14.6436 12.8922 14.8779 11.8447 14.5636 10.9348C14.2259 9.96087 13.1946 8.47348 12.1306 7.01138C11.695 6.41094 11.6744 5.75821 11.6505 5.00243C11.6277 4.28158 11.602 3.4645 11.1953 2.55616C10.7531 1.56713 9.86585 1 8.76089 1C8.10355 1 7.42881 1.20307 6.90959 1.55709C5.84633 2.28243 5.98688 3.86385 6.07989 4.91022C6.09265 5.05353 6.10461 5.18888 6.11161 5.30443C6.17353 6.32931 6.11719 6.86951 6.04352 7.03369C5.99586 7.14098 5.76123 7.4463 5.5129 7.76962C5.25608 8.104 4.96491 8.48293 4.72625 8.83606C4.44149 9.26102 4.21161 9.91053 3.98932 10.5386C3.82666 10.9982 3.67301 11.4323 3.52346 11.6919C3.23998 12.191 3.31053 12.6564 3.36939 12.8715C3.26206 12.9451 3.10703 13.0903 2.97616 13.3638C2.81797 13.6974 2.49701 13.8766 1.82962 14.0035C1.52292 14.0655 1.31144 14.193 1.20085 14.3824C1.03993 14.658 1.1276 15.0043 1.20755 15.241C1.32569 15.5888 1.25206 15.809 1.11821 16.2089C1.08735 16.3011 1.05237 16.4056 1.01694 16.5208C0.961127 16.7027 0.981269 16.868 1.07664 17.0122C1.32867 17.3931 2.06419 17.5274 2.82133 17.6158C3.2734 17.6688 3.76818 17.8475 4.24673 18.0204C4.71561 18.1898 5.20047 18.365 5.64117 18.4181C5.70815 18.4264 5.7745 18.4306 5.83846 18.4306C6.50388 18.4306 6.80452 17.9942 6.89985 17.8149C7.13885 17.7667 7.96322 17.6123 8.81285 17.5915C9.66114 17.5676 10.4819 17.7332 10.7144 17.7846C10.7875 17.9229 10.9802 18.2388 11.2873 18.4016C11.4562 18.4928 11.6911 18.5451 11.9317 18.5451C12.1887 18.5451 12.6777 18.485 13.0647 18.0826C13.4506 17.6784 14.415 17.1622 15.1191 16.7853C15.2763 16.7013 15.4233 16.6225 15.5522 16.5516C15.9477 16.3348 16.1636 16.0252 16.1443 15.7019C16.1282 15.4334 15.9485 15.1979 15.6751 15.0872ZM9.27109 3.53564C9.65455 3.53564 9.96653 3.92818 9.96653 4.41066C9.96653 4.61144 9.91047 4.803 9.81357 4.95525C9.8394 4.8739 9.85337 4.78583 9.85337 4.69447C9.85337 4.291 9.59441 3.97495 9.26378 3.97495C8.94067 3.97495 8.67779 4.29772 8.67779 4.69447C8.67779 4.72158 8.67914 4.74861 8.68167 4.77565C8.66455 4.76921 8.64787 4.76283 8.63158 4.75673C8.59438 4.64536 8.57559 4.52926 8.57559 4.41066C8.57562 3.92821 8.88756 3.53564 9.27109 3.53564ZM8.09183 5.28908C8.23792 5.31458 8.59819 5.45672 8.86135 5.56055C8.98297 5.60853 9.08805 5.64999 9.16192 5.67617C9.39472 5.75526 9.51612 5.85645 9.53082 5.89425C9.52531 5.91868 9.51353 5.92944 9.38352 5.9963C9.31786 6.03005 9.23618 6.07207 9.13391 6.13368L9.06558 6.17459C8.79101 6.33918 8.1481 6.72452 7.97358 6.74707C7.85502 6.76283 7.7817 6.71733 7.61685 6.60664C7.57965 6.58163 7.5401 6.55503 7.49791 6.52831C7.2007 6.33548 7.00951 6.12326 6.98794 6.04027C7.08484 5.96625 7.32502 5.78093 7.44798 5.67117C7.69759 5.44175 7.94876 5.28757 8.07308 5.28757C8.07967 5.28747 8.08563 5.28792 8.09183 5.28908ZM7.11226 3.69769C7.39453 3.69769 7.63294 4.07361 7.63294 4.51864C7.63294 4.57477 7.62885 4.63059 7.62032 4.69019C7.60302 4.69748 7.58603 4.70544 7.56932 4.71376C7.56762 4.67665 7.56374 4.63916 7.55774 4.60147C7.49735 4.25776 7.26674 4.00826 7.00958 4.00826C6.99054 4.00826 6.97141 4.0097 6.9504 4.01285C6.79741 4.03804 6.67739 4.1516 6.61163 4.31273C6.66942 3.95932 6.87198 3.69769 7.11226 3.69769ZM6.25243 17.0759C6.19166 17.3583 5.86821 17.588 5.79191 17.6388C5.76421 17.6449 5.72992 17.6481 5.6896 17.6481C5.24696 17.6481 4.37074 17.2841 3.89998 17.0886L3.83033 17.0596C3.56745 16.9507 3.13833 16.8821 2.72332 16.8157C2.39311 16.7628 1.94094 16.6905 1.86596 16.6251C1.80518 16.5577 1.87566 16.3387 1.93782 16.1455C1.98258 16.0066 2.02879 15.8631 2.0541 15.7128C2.09001 15.4732 2.04782 15.2779 2.01395 15.1211C1.98521 14.9881 1.96251 14.8831 1.98688 14.7814C2.00456 14.7061 2.38091 14.6254 2.54166 14.5908C2.76763 14.5423 3.00136 14.4922 3.15417 14.4005C3.36083 14.2767 3.47274 14.0485 3.57144 13.8472C3.64289 13.7016 3.71669 13.551 3.80451 13.5016C3.80946 13.4987 3.81702 13.4954 3.83144 13.4954C3.99598 13.4954 4.3412 13.8372 4.54012 14.1433C4.59056 14.2204 4.68403 14.375 4.79216 14.554C5.11557 15.0889 5.55838 15.8214 5.78965 16.0669C5.99804 16.2876 6.33539 16.712 6.25243 17.0759ZM11.0545 13.3376C10.9801 13.6886 10.9722 14.8113 10.9714 15.0636C10.8197 15.254 10.0528 16.151 8.95163 16.3122C8.5031 16.3766 8.08428 16.4093 7.70681 16.4093C7.38416 16.4093 7.17827 16.3847 7.09278 16.3719L6.53945 15.7461C6.75758 15.6396 6.97571 15.4149 6.91826 15.0095C6.86903 14.6666 6.42282 14.3266 5.9061 13.9328C5.48361 13.6109 5.0047 13.246 4.87276 12.9369C4.6001 12.2995 4.81504 11.1785 5.18976 10.6013C5.37496 10.3122 5.52621 9.87393 5.67251 9.45014C5.83046 8.99246 5.99381 8.51923 6.17651 8.31211C6.46581 7.98869 6.73317 7.35943 6.78053 6.86351C7.05142 7.11908 7.47166 7.44353 7.85991 7.44353C7.91967 7.44353 7.97771 7.43582 8.03314 7.42033C8.29877 7.34449 8.68944 7.12138 9.06725 6.90566C9.39298 6.71962 9.79465 6.4902 9.9458 6.46933C10.2049 6.83716 11.7108 10.1311 11.8647 11.1889C11.9864 12.0259 11.8578 12.7178 11.7931 12.9888C11.7411 12.9818 11.6791 12.9761 11.6139 12.9761C11.1944 12.9762 11.0834 13.2025 11.0545 13.3376ZM15.2634 15.7907C15.1756 15.87 14.8665 16.026 14.5676 16.1769C14.0373 16.4445 13.4363 16.7478 13.1664 17.0284C12.7864 17.4238 12.3566 17.6893 12.097 17.6893C12.0658 17.6893 12.0373 17.6854 12.012 17.6774C11.7302 17.5906 11.4982 17.1886 11.6229 16.6152C11.7542 16.0295 11.9055 15.2329 11.881 14.7631C11.8754 14.6565 11.8658 14.5403 11.8566 14.428C11.8393 14.218 11.8136 13.906 11.8401 13.8134C11.8453 13.8109 11.8512 13.8089 11.8576 13.8071C11.8587 14.0756 11.9177 14.6113 12.3511 14.798C12.4802 14.8537 12.6278 14.8819 12.7897 14.8819C13.2238 14.8819 13.7054 14.6715 13.9027 14.4764C14.0189 14.3617 14.1166 14.2211 14.185 14.1099C14.1999 14.1532 14.2092 14.2098 14.2043 14.2827C14.1785 14.6788 14.3733 15.2042 14.7438 15.3978L14.7978 15.4259C14.9298 15.4943 15.2804 15.6763 15.286 15.7626C15.286 15.7626 15.2829 15.7727 15.2634 15.7907Z" stroke="white" mask="url(#path-1-outside-1)"/>
</svg>
